<svg xmlns="http://www.w3.org/2000/svg" viewBox="0 0 203.66 204.58"><defs><style>.cls-1{fill:#99e601;}.cls-2{fill:#155dfc;}</style></defs><g id="Слой_2" data-name="Слой 2"><g id="Слой_3" data-name="Слой 3"><path class="cls-1" d="M107.65,30l1,12h0l53,61.4s3.94,4.06,3.36,13.79l-.75,52.49a1.36,1.36,0,0,0,2.4.91l2.76-3.21a45.77,45.77,0,0,0,5.57-8.09h0a16.33,16.33,0,0,0,2-7.55l.7-48.57a12.34,12.34,0,0,0-1.31-5.69l-.18-.35A42.54,42.54,0,0,0,170,88L122.66,35l0,0-3-3"/><path class="cls-1" d="M148.63,10.84l47.27,53.1a42.81,42.81,0,0,1,6.31,9.28l.14.26a12.34,12.34,0,0,1,1.31,5.69l-.7,48.57a16.33,16.33,0,0,1-2,7.55h0a45.77,45.77,0,0,1-5.57,8.09l-2.76,3.21a1.36,1.36,0,0,1-2.4-.91L191,93.19c.58-9.73-3.36-13.79-3.36-13.79L137.46,22.68l-.85-1.05a25.7,25.7,0,0,0-3-3.13,19.56,19.56,0,0,0-7.93-4.17,9.26,9.26,0,0,0-2.07-.33H94.36a.71.71,0,0,0-.71.71v33a20.2,20.2,0,0,0,3.52,11.41l.43.64.06.07,47.24,53.07a42.81,42.81,0,0,1,6.31,9.28l.14.26a12.34,12.34,0,0,1,1.31,5.69l-.7,48.57a16.33,16.33,0,0,1-2,7.55h0a45.85,45.85,0,0,1-5.57,8.1l-2.76,3.2a1.36,1.36,0,0,1-2.4-.91l.75-52.49c.58-9.73-3.36-13.79-3.36-13.79L86.48,71.7s0,0,0,0-1.63-2-3.31-4.51A14.51,14.51,0,0,1,80.65,59V.71A.71.71,0,0,1,81.36,0h54.29l3,1"/><path class="cls-2" d="M96.4,174.36l-1.1-12h0l-53.49-61s-4-4-3.47-13.75l.34-52.5a1.37,1.37,0,0,0-2.41-.89l-2.73,3.23A45.24,45.24,0,0,0,28,45.6h0a16.38,16.38,0,0,0-1.91,7.57l-.31,48.57a12.28,12.28,0,0,0,1.35,5.68l.18.35a42.57,42.57,0,0,0,6.28,9.07l47.72,52.62,0,0,3,3"/><path class="cls-2" d="M55.57,193.84,7.87,141.12a43.41,43.41,0,0,1-6.38-9.23l-.13-.26A12.23,12.23,0,0,1,0,126L.31,77.38a16.38,16.38,0,0,1,1.91-7.57h0a46.21,46.21,0,0,1,5.51-8.14l2.73-3.23a1.37,1.37,0,0,1,2.41.9l-.33,52.49C12,121.56,16,125.59,16,125.59l50.64,56.32.87,1a24.31,24.31,0,0,0,3.06,3.11,19.62,19.62,0,0,0,8,4.11,8.59,8.59,0,0,0,2.07.31l29.21-.23a.71.71,0,0,0,.71-.72l-.26-33a20.34,20.34,0,0,0-3.62-11.39l-.44-.63a.18.18,0,0,0,0-.07L58.49,91.72a43.45,43.45,0,0,1-6.39-9.23L52,82.23a12.23,12.23,0,0,1-1.36-5.68L50.92,28a16.41,16.41,0,0,1,1.91-7.57h0a46.21,46.21,0,0,1,5.51-8.14L61.07,9a1.37,1.37,0,0,1,2.41.89l-.33,52.5c-.51,9.73,3.46,13.76,3.46,13.76l50.63,56.3,0,0s1.65,2,3.35,4.48a14.58,14.58,0,0,1,2.55,8.11l.46,58.31a.72.72,0,0,1-.71.72l-54.28.43-3-1"/></g></g></svg>