<svg xmlns="http://www.w3.org/2000/svg" viewBox="0 0 146.6 38"><defs><style>.cls-1{fill:#99e601;}.cls-2{fill:#155dfc;}</style></defs><g id="Слой_2" data-name="Слой 2"><g id="Слой_3" data-name="Слой 3"><path class="cls-1" d="M21.14,5.57l.2,2.23h0L31.75,19.21a3.34,3.34,0,0,1,.66,2.56l-.15,9.75a.27.27,0,0,0,.47.17l.55-.6a8.45,8.45,0,0,0,1.09-1.5h0a2.89,2.89,0,0,0,.39-1.4l.13-9a2.14,2.14,0,0,0-.25-1.05l0-.07a8.07,8.07,0,0,0-1.22-1.69L24.09,6.5h0l-.59-.56"/><path class="cls-1" d="M29.19,2l9.29,9.87a8.35,8.35,0,0,1,1.24,1.72l0,.05A2.08,2.08,0,0,1,40,14.71l-.14,9a2.88,2.88,0,0,1-.38,1.4h0a8.51,8.51,0,0,1-1.1,1.5l-.54.6a.27.27,0,0,1-.47-.17l.15-9.75a3.34,3.34,0,0,0-.66-2.56L27,4.21,26.83,4a4.11,4.11,0,0,0-.6-.58,3.85,3.85,0,0,0-1.55-.78,2.38,2.38,0,0,0-.41-.06H18.53a.14.14,0,0,0-.14.13V8.87A3.63,3.63,0,0,0,19.08,11l.09.12h0L28.46,21A8,8,0,0,1,29.7,22.7l0,.05A2.18,2.18,0,0,1,30,23.81l-.13,9a2.89,2.89,0,0,1-.39,1.4h0a8.44,8.44,0,0,1-1.1,1.51l-.54.59a.27.27,0,0,1-.47-.17l.15-9.75a3.34,3.34,0,0,0-.66-2.56L17,13.32h0s-.32-.37-.65-.84A2.57,2.57,0,0,1,15.84,11V.13A.13.13,0,0,1,16,0H26.64l.59.19"/><path class="cls-2" d="M18.93,32.39l-.21-2.23h0L8.21,18.83a3.33,3.33,0,0,1-.68-2.55L7.6,6.53a.28.28,0,0,0-.48-.17L6.59,7A8,8,0,0,0,5.51,8.47h0a2.81,2.81,0,0,0-.38,1.41l-.06,9A2.13,2.13,0,0,0,5.34,20l0,.07A8.06,8.06,0,0,0,6.6,21.7L16,31.48h0l.59.55"/><path class="cls-2" d="M10.91,36l-9.36-9.8A7.79,7.79,0,0,1,.29,24.5l0-.05A2.2,2.2,0,0,1,0,23.39l.06-9A2.78,2.78,0,0,1,.44,13h0a8,8,0,0,1,1.08-1.51l.53-.6a.27.27,0,0,1,.48.16l-.07,9.75a3.34,3.34,0,0,0,.68,2.56l10,10.46.17.19a4.11,4.11,0,0,0,.6.58,3.92,3.92,0,0,0,1.56.76,1.69,1.69,0,0,0,.41.06l5.74,0a.13.13,0,0,0,.14-.13l-.06-6.14A3.64,3.64,0,0,0,21,27l-.09-.11v0L11.49,17a8.09,8.09,0,0,1-1.26-1.72l0-.05a2.13,2.13,0,0,1-.27-1l.06-9a2.81,2.81,0,0,1,.38-1.41h0a8,8,0,0,1,1.08-1.51l.53-.6a.28.28,0,0,1,.48.17L12.4,11.6a3.33,3.33,0,0,0,.68,2.55L23,24.61h0s.33.37.66.83a2.58,2.58,0,0,1,.5,1.51l.09,10.83a.13.13,0,0,1-.14.13L13.48,38l-.59-.18"/><path class="cls-2" d="M48.76,30.68a2.69,2.69,0,0,1-.52-2.18l2.95-18.36H46.66a2.21,2.21,0,0,1-1.61-.61,2.16,2.16,0,0,1-.63-1.62,2.12,2.12,0,0,1,.63-1.59,2.25,2.25,0,0,1,1.61-.61h15a2.23,2.23,0,0,1,1.6.61,2.12,2.12,0,0,1,.63,1.59,2.16,2.16,0,0,1-.63,1.62,2.19,2.19,0,0,1-1.6.61H56.48L53.42,29.29a2.65,2.65,0,0,1-.86,1.64,2.47,2.47,0,0,1-1.69.59A2.59,2.59,0,0,1,48.76,30.68Z"/><path class="cls-2" d="M64.62,30.46a7.41,7.41,0,0,1-3-3.56,10.23,10.23,0,0,1-.5-5.35l.14-1a9.71,9.71,0,0,1,3-6.1,9.39,9.39,0,0,1,6.48-2.18,9.28,9.28,0,0,1,5,1.26,7.19,7.19,0,0,1,2.95,3.56,10.38,10.38,0,0,1,.53,5.29l-.11,1.08a9.8,9.8,0,0,1-3,6.12,9.39,9.39,0,0,1-6.5,2.2A9.23,9.23,0,0,1,64.62,30.46Zm8.06-3.76a6.21,6.21,0,0,0,1.41-3.42l.21-1.69a5.9,5.9,0,0,0-.64-4.05,3.36,3.36,0,0,0-3-1.46,3.85,3.85,0,0,0-2.94,1.17,6.13,6.13,0,0,0-1.42,3.37l-.18,1.69a5.65,5.65,0,0,0,.6,4.05,3.36,3.36,0,0,0,3,1.49A3.83,3.83,0,0,0,72.68,26.7Z"/><path class="cls-1" d="M82.44,30.5A2.63,2.63,0,0,1,82,28.32L85.18,8.2a2.91,2.91,0,0,1,.9-1.88,3.05,3.05,0,0,1,2-.61h6.66a10.73,10.73,0,0,1,6.09,1.69,9.35,9.35,0,0,1,3.61,4.81,14.25,14.25,0,0,1,.45,7.15l-.21,1.18a12.68,12.68,0,0,1-4,7.89,12.19,12.19,0,0,1-8.34,2.84H84.46A2.46,2.46,0,0,1,82.44,30.5ZM97,25.17a8.5,8.5,0,0,0,2.25-4.84L99.47,19a12,12,0,0,0-.06-4.9,5.13,5.13,0,0,0-1.87-3,5.53,5.53,0,0,0-3.36-1h-4L87.52,26.92h4.6A6.57,6.57,0,0,0,97,25.17Z"/><path class="cls-1" d="M110.88,30.46a7.36,7.36,0,0,1-3-3.56,10.23,10.23,0,0,1-.5-5.35l.14-1a9.71,9.71,0,0,1,3-6.1A9.39,9.39,0,0,1,117,12.23a9.28,9.28,0,0,1,5,1.26,7.19,7.19,0,0,1,3,3.56,10.49,10.49,0,0,1,.53,5.29l-.11,1.08a9.8,9.8,0,0,1-3,6.12,9.39,9.39,0,0,1-6.5,2.2A9.23,9.23,0,0,1,110.88,30.46Zm8.06-3.76a6.21,6.21,0,0,0,1.41-3.42l.21-1.69a5.9,5.9,0,0,0-.64-4.05,3.36,3.36,0,0,0-3-1.46A3.83,3.83,0,0,0,114,17.25a6.13,6.13,0,0,0-1.42,3.37l-.18,1.69a5.65,5.65,0,0,0,.6,4.05,3.36,3.36,0,0,0,3,1.49A3.83,3.83,0,0,0,118.94,26.7Z"/><path class="cls-1" d="M131.87,30.46a7.36,7.36,0,0,1-3-3.56,10.13,10.13,0,0,1-.5-5.35l.14-1a9.7,9.7,0,0,1,3-6.1A9.41,9.41,0,0,1,138,12.23a9.31,9.31,0,0,1,5,1.26,7.19,7.19,0,0,1,3,3.56,10.39,10.39,0,0,1,.52,5.29l-.1,1.08a9.76,9.76,0,0,1-3,6.12,9.37,9.37,0,0,1-6.49,2.2A9.23,9.23,0,0,1,131.87,30.46Zm8.06-3.76a6.21,6.21,0,0,0,1.41-3.42l.21-1.69a5.84,5.84,0,0,0-.65-4.05,3.33,3.33,0,0,0-3-1.46A3.83,3.83,0,0,0,135,17.25a6.13,6.13,0,0,0-1.42,3.37l-.18,1.69a5.66,5.66,0,0,0,.59,4.05,3.37,3.37,0,0,0,3,1.49A3.83,3.83,0,0,0,139.93,26.7Z"/></g></g></svg>