<svg xmlns="http://www.w3.org/2000/svg" viewBox="0 0 77.93 22"><defs><style>.cls-1{fill:#99e601;}.cls-2{fill:#155dfc;}</style></defs><g id="Слой_2" data-name="Слой 2"><g id="Слой_3" data-name="Слой 3"><path class="cls-1" d="M12.16,3.23l.11,1.29h0l6,6.6a2,2,0,0,1,.38,1.48l-.09,5.65a.15.15,0,0,0,.27.09l.31-.34a4.37,4.37,0,0,0,.63-.87h0a1.8,1.8,0,0,0,.23-.81l.07-5.23a1.19,1.19,0,0,0-.14-.61l0,0a4.6,4.6,0,0,0-.71-1L13.85,3.77h0l-.34-.32"/><path class="cls-1" d="M16.79,1.17l5.33,5.71a4.32,4.32,0,0,1,.72,1v0a1.31,1.31,0,0,1,.15.61l-.08,5.23a1.67,1.67,0,0,1-.22.81h0a5.35,5.35,0,0,1-.63.87l-.31.34a.15.15,0,0,1-.27-.09L21.57,10a1.92,1.92,0,0,0-.38-1.48l-5.67-6.1-.09-.11A2.24,2.24,0,0,0,15.08,2a2.21,2.21,0,0,0-.89-.45l-.23,0h-3.3a.07.07,0,0,0-.08.07V5.13A2.09,2.09,0,0,0,11,6.36l0,.07h0l5.33,5.71a4.32,4.32,0,0,1,.72,1v0a1.31,1.31,0,0,1,.15.61L17.16,19a1.67,1.67,0,0,1-.22.81h0a5.35,5.35,0,0,1-.63.87L16,21a.15.15,0,0,1-.27-.09l.08-5.65a1.9,1.9,0,0,0-.38-1.48L9.77,7.71h0s-.18-.22-.37-.49a1.53,1.53,0,0,1-.28-.87V.08A.07.07,0,0,1,9.19,0h6.13l.34.11"/><path class="cls-2" d="M10.89,18.75l-.13-1.29h0l-6-6.56a1.92,1.92,0,0,1-.39-1.48l0-5.64a.16.16,0,0,0-.27-.1L3.79,4a4.76,4.76,0,0,0-.62.87h0A1.68,1.68,0,0,0,3,5.72l0,5.22a1.32,1.32,0,0,0,.16.61l0,0a4.79,4.79,0,0,0,.71,1l5.39,5.65h0l.34.32"/><path class="cls-2" d="M6.28,20.85.89,15.18a4.38,4.38,0,0,1-.72-1l0,0A1.32,1.32,0,0,1,0,13.54L0,8.32a1.66,1.66,0,0,1,.21-.81h0a4.51,4.51,0,0,1,.62-.88l.31-.34a.15.15,0,0,1,.27.09l0,5.65a1.94,1.94,0,0,0,.39,1.48l5.72,6,.09.11A2.24,2.24,0,0,0,8,20a2.3,2.3,0,0,0,.9.44l.23,0,3.3,0a.08.08,0,0,0,.08-.08l0-3.55A2,2,0,0,0,12,15.6l0-.06h0L6.6,9.86a5,5,0,0,1-.72-1v0a1.2,1.2,0,0,1-.15-.61L5.75,3A1.71,1.71,0,0,1,6,2.19H6a4.76,4.76,0,0,1,.62-.87L6.9,1a.16.16,0,0,1,.27.1l0,5.64a1.92,1.92,0,0,0,.39,1.48l5.72,6.06h0s.19.22.38.48a1.47,1.47,0,0,1,.29.88L14,21.88a.07.07,0,0,1-.08.07L7.75,22l-.34-.1"/><path class="cls-2" d="M29,17a1.34,1.34,0,0,1-.26-1.09l1.47-9.18H28a1.09,1.09,0,0,1-.8-.31,1,1,0,0,1-.32-.81,1,1,0,0,1,.32-.79,1.09,1.09,0,0,1,.8-.31h7.5a1.11,1.11,0,0,1,.8.31,1.05,1.05,0,0,1,.32.79,1.07,1.07,0,0,1-.32.81,1.11,1.11,0,0,1-.8.31H32.87l-1.53,9.57a1.34,1.34,0,0,1-.43.82,1.24,1.24,0,0,1-.85.3A1.28,1.28,0,0,1,29,17Z"/><path class="cls-2" d="M36.94,16.87a3.74,3.74,0,0,1-1.5-1.78,5.2,5.2,0,0,1-.25-2.68l.07-.52a4.9,4.9,0,0,1,1.52-3.05,5.31,5.31,0,0,1,5.73-.46A3.58,3.58,0,0,1,44,10.16a5.2,5.2,0,0,1,.27,2.65l-.06.54a4.87,4.87,0,0,1-1.52,3.06,4.7,4.7,0,0,1-3.25,1.1A4.64,4.64,0,0,1,36.94,16.87ZM41,15a3.14,3.14,0,0,0,.7-1.71l.11-.85a2.94,2.94,0,0,0-.32-2A1.68,1.68,0,0,0,40,9.68a1.89,1.89,0,0,0-1.46.58,3,3,0,0,0-.72,1.68l-.09.85a2.84,2.84,0,0,0,.3,2,1.69,1.69,0,0,0,1.5.74A1.94,1.94,0,0,0,41,15Z"/><path class="cls-1" d="M45.85,16.89a1.31,1.31,0,0,1-.22-1.09L47.22,5.73a1.42,1.42,0,0,1,.45-.93,1.51,1.51,0,0,1,1-.31H52a5.31,5.31,0,0,1,3,.85,4.59,4.59,0,0,1,1.8,2.4,7.11,7.11,0,0,1,.23,3.57l-.11.6a6.34,6.34,0,0,1-2,3.94,6.11,6.11,0,0,1-4.17,1.42H46.86A1.25,1.25,0,0,1,45.85,16.89Zm7.28-2.67a4.25,4.25,0,0,0,1.12-2.42l.11-.68a5.85,5.85,0,0,0,0-2.45,2.56,2.56,0,0,0-.93-1.5,2.77,2.77,0,0,0-1.68-.5h-2l-1.33,8.42h2.3A3.31,3.31,0,0,0,53.13,14.22Z"/><path class="cls-1" d="M60.07,16.87a3.74,3.74,0,0,1-1.5-1.78,5.2,5.2,0,0,1-.25-2.68l.07-.52a4.85,4.85,0,0,1,1.52-3.05,5.31,5.31,0,0,1,5.73-.46,3.58,3.58,0,0,1,1.47,1.78,5.2,5.2,0,0,1,.27,2.65l-.06.54a4.87,4.87,0,0,1-1.52,3.06,4.7,4.7,0,0,1-3.25,1.1A4.64,4.64,0,0,1,60.07,16.87Zm4-1.88a3.14,3.14,0,0,0,.7-1.71l.11-.85a2.94,2.94,0,0,0-.32-2,1.68,1.68,0,0,0-1.5-.73,1.89,1.89,0,0,0-1.46.58,3,3,0,0,0-.72,1.68l-.09.85a2.84,2.84,0,0,0,.3,2,1.69,1.69,0,0,0,1.5.74A1.94,1.94,0,0,0,64.1,15Z"/><path class="cls-1" d="M70.56,16.87a3.72,3.72,0,0,1-1.49-1.78,5.09,5.09,0,0,1-.25-2.68l.07-.52A4.84,4.84,0,0,1,70.4,8.84a4.69,4.69,0,0,1,3.24-1.09,4.63,4.63,0,0,1,2.49.63,3.65,3.65,0,0,1,1.48,1.78,5.21,5.21,0,0,1,.26,2.65l-.05.54a4.88,4.88,0,0,1-1.53,3.06,5.25,5.25,0,0,1-5.73.46Zm4-1.88a3.14,3.14,0,0,0,.71-1.71l.1-.85a2.94,2.94,0,0,0-.32-2,1.65,1.65,0,0,0-1.49-.73,1.9,1.9,0,0,0-1.47.58,3,3,0,0,0-.71,1.68l-.09.85a2.84,2.84,0,0,0,.29,2,1.71,1.71,0,0,0,1.51.74A1.93,1.93,0,0,0,74.59,15Z"/></g></g></svg>